<?xml version="1.0" standalone="no"?>
<!DOCTYPE svg PUBLIC "-//W3C//DTD SVG 1.1//EN" "http://www.w3.org/Graphics/SVG/1.1/DTD/svg11.dtd" >
<svg xmlns="http://www.w3.org/2000/svg">
<metadata>Generated by IcoMoon</metadata>
<defs>
<font id="ABBicons" horiz-adv-x="1024">
<font-face units-per-em="1024" ascent="960" descent="-64" />
<missing-glyph horiz-adv-x="1024" />
<glyph unicode="&#x20;" horiz-adv-x="512" d="" />
<glyph unicode="&#xe900;" glyph-name="advertising" d="M21.333 768l-21.333-21.333v-469.333l21.333-21.333h448v-341.333h42.667v341.333h448l21.333 21.333v469.333l-21.333 21.333zM938.667 298.667h-896v426.667h896zM0 853.334h213.333v-42.667h-213.333v42.667zM384 853.334h213.333v-42.667h-213.333v42.667zM768 853.334h213.333v-42.667h-213.333v42.667z" />
<glyph unicode="&#xe901;" glyph-name="chart" d="M85.333-0v896h-42.667v-918.187l21.333-20.48h917.333v42.667h-896zM170.667 298.667h42.667v-256h-42.667v256zM298.667 640h42.667v-597.333h-42.667v597.333zM426.667 426.667h42.667v-384h-42.667v384zM554.667 554.667h42.667v-512h-42.667v512zM810.667 768h42.667v-725.333h-42.667v725.333zM682.667 469.334h42.667v-426.667h-42.667v426.667z" />
<glyph unicode="&#xe902;" glyph-name="close" d="M1011.627 896l-30.293 30.293-469.333-469.333-469.333 469.333-30.293-30.293 469.333-469.333-469.333-469.333 30.293-30.293 469.333 469.333 469.333-469.333 30.293 30.293-469.333 469.333 469.333 469.333z" />
<glyph unicode="&#xe903;" glyph-name="cobranding" d="M704 768c-0.044 0-0.096 0-0.147 0-72.417 0-139.177-24.216-192.625-64.992-52.042 40.522-118.826 64.566-191.227 64.566-176.731 0-320-143.269-320-320s143.269-320 320-320c72.401 0 139.185 24.044 192.805 64.583 51.901-40.278 118.474-64.156 190.624-64.156 176.731 0 320 143.269 320 320 0 176.53-142.944 319.675-319.398 319.999zM320 170.667c-0.185 0-0.405-0.001-0.624-0.001-153.167 0-277.333 124.166-277.333 277.333s124.166 277.333 277.333 277.333c59.682 0 114.961-18.852 160.206-50.926-59.406-57.302-95.662-137.62-95.662-226.407s36.256-169.104 94.77-226.957c-44.148-31.504-99.215-50.357-158.685-50.376zM597.333 448c-0.023-78.46-32.725-149.278-85.234-199.586-52.786 50.267-85.539 121.101-85.539 199.586s32.753 149.319 85.336 199.581c52.712-50.303 85.414-121.121 85.438-199.577zM704 170.667c-59.474 0.019-114.542 18.872-159.566 50.919 59.39 57.31 95.646 137.628 95.646 226.415s-36.256 169.104-94.77 226.957c44.354 31.523 99.632 50.375 159.314 50.375 153.167 0 277.333-124.166 277.333-277.333s-124.166-277.333-277.333-277.333c-0.219 0-0.439 0-0.658 0.001z" />
<glyph unicode="&#xe904;" glyph-name="compare" d="M960 896h-682.667l-21.333-21.333v-192h-192l-21.333-21.333v-682.667l21.333-21.333h682.667l21.333 21.333v192h192l21.333 21.333v682.667zM725.333-0h-640v640h170.667v-448l21.333-21.333h448zM938.667 213.334h-640v640h640z" />
<glyph unicode="&#xe905;" glyph-name="core-elements" d="M490.667 597.334c-82.475 0-149.333-66.859-149.333-149.333s66.859-149.333 149.333-149.333c82.475 0 149.333 66.859 149.333 149.333s-66.859 149.333-149.333 149.333zM490.667 341.334c-58.91 0-106.667 47.756-106.667 106.667s47.756 106.667 106.667 106.667c58.91 0 106.667-47.756 106.667-106.667s-47.756-106.667-106.667-106.667zM981.333 426.667v42.667h-85.333c-2.832 59.747-18.281 115.271-43.722 164.822l75.722 40.405-21.333 37.12-74.667-42.667c-31.49 47.833-71.206 87.55-117.509 118.091l41.136 75.615-37.12 21.333-43.947-73.387c-47.29 24.386-102.814 39.835-161.652 42.632l-0.908 85.368h-42.667v-85.333c-59.747-2.832-115.271-18.281-164.822-43.722l-40.405 75.722-37.12-21.333 42.667-74.667c-47.78-31.983-87.381-72.264-117.642-119.141l-75.638 41.061-21.333-37.12 72.96-42.24c-24.386-47.29-39.835-102.814-42.632-161.652l-85.368-0.908v-42.667h85.333c2.832-59.747 18.281-115.271 43.722-164.822l-75.722-40.405 21.333-37.12 74.667 42.667c31.49-47.833 71.206-87.55 117.509-118.091l-41.136-75.615 37.12-21.333 42.667 74.667c47.59-24.978 103.532-40.878 162.872-43.907l0.968-85.373h42.667v85.333c59.747 2.832 115.271 18.281 164.822 43.722l40.405-75.722 37.12 21.333-42.667 74.667c47.833 31.49 87.55 71.206 118.091 117.509l75.615-41.136 21.333 37.12-74.667 42.667c24.978 47.59 40.878 103.532 43.907 162.872zM490.667 85.334c-200.295 0-362.667 162.371-362.667 362.667s162.371 362.667 362.667 362.667c200.295 0 362.667-162.371 362.667-362.667-0.243-200.198-162.469-362.424-362.643-362.667z" />
<glyph unicode="&#xe906;" glyph-name="digital-media" d="M1018.027 778.667l-64 67.84-15.36 6.827h-853.333l-15.36-6.827-64-67.84-5.973-14.507v-546.987l5.973-14.507 64-67.84 15.36-6.827h384v-85.333h-256v-42.667h597.333v42.667h-298.667v85.333h426.667l15.36 6.827 64 67.84 5.973 14.507v546.987zM981.333 224l-52.053-53.333h-834.56l-52.053 55.040v72.96h938.667zM42.667 341.334v414.293l52.053 55.040h834.56l52.053-55.040v-414.293z" />
<glyph unicode="&#xe907;" glyph-name="download" d="M938.667 213.334v-103.253l-110.080-110.080h-675.84l-110.080 110.080v103.253h-42.667v-112.213l6.4-14.933 122.453-122.453 14.933-6.4h693.76l14.933 6.4 122.453 122.453 6.4 14.933v112.213h-42.667zM469.333 170.667h42.667v7.68l307.627 307.627-30.293 30.293-277.333-277.333v699.733h-42.667v-699.733l-277.333 277.333-30.293-30.293 307.627-307.627v-7.68z" />
<glyph unicode="&#xe908;" glyph-name="environmental" d="M874.667 938.667h-426.667l-21.333-21.333v-362.667h-320l-21.333-21.333v-597.333l21.333-21.333h768l21.333 21.333v981.333zM128 256h128v42.667h-128v85.333h170.667v42.667h-170.667v85.333h384v-554.667h-170.667v149.333l-21.333 21.333h-128l-21.333-21.333v-149.333h-42.667zM213.333-42.666v128h85.333v-128zM682.667-42.666v128h85.333v-128zM853.333-42.666h-42.667v149.333l-21.333 21.333h-128l-21.333-21.333v-149.333h-85.333v576l-21.333 21.333h-64v85.333h170.667v42.667h-170.667v85.333h256v42.667h-256v85.333h384z" />
<glyph unicode="&#xe909;" glyph-name="file-excel" d="M960 896h-768l-21.333-21.333v-64h-106.667l-21.333-21.333v-810.667l21.333-21.333h810.667l21.333 21.333v106.667h64l21.333 21.333v768zM469.333 853.334h213.333v-213.333h-213.333zM469.333 597.334h213.333v-128h-213.333zM469.333 426.667h213.333v-128h-213.333zM469.333 256h213.333v-128h-213.333zM213.333 853.334h213.333v-213.333h-213.333zM213.333 597.334h213.333v-128h-213.333zM213.333 426.667h213.333v-128h-213.333zM213.333 256h213.333v-128h-213.333zM853.333-0h-768v768h85.333v-661.333l21.333-21.333h661.333zM938.667 128h-213.333v128h213.333zM938.667 298.667h-213.333v128h213.333zM938.667 469.334h-213.333v128h213.333zM938.667 640h-213.333v213.333h213.333z" />
<glyph unicode="&#xe90a;" glyph-name="file-image" d="M960 896h-768l-21.333-21.333v-64h-106.667l-21.333-21.333v-810.667l21.333-21.333h810.667l21.333 21.333v106.667h64l21.333 21.333v768zM938.667 853.334v-554.667h-27.733l-122.88 327.68-37.547 4.267-153.173-232.533-88.32 106.24-34.56-2.56-123.733-203.093h-137.387v554.667zM865.28 298.667h-465.067l93.013 155.307 85.333-104.96h34.133l147.627 221.44zM853.333-0h-768v768h85.333v-661.333l21.333-21.333h661.333zM213.333 128v128h725.333v-128zM384 597.334c47.128 0 85.333 38.205 85.333 85.333s-38.205 85.333-85.333 85.333c-47.128 0-85.333-38.205-85.333-85.333s38.205-85.333 85.333-85.333zM384 725.334c23.564 0 42.667-19.103 42.667-42.667s-19.103-42.667-42.667-42.667c-23.564 0-42.667 19.103-42.667 42.667s19.103 42.667 42.667 42.667z" />
<glyph unicode="&#xe90b;" glyph-name="log-in" d="M552.107 234.667l30.293-30.293 228.267 228.693v29.867l-228.267 228.693-30.293-30.293 192-192h-744.107v-42.667h744.107l-192-192zM1002.667 938.667h-533.333v-42.667h512v-896h-512v-42.667h533.333l21.333 21.333v938.667l-21.333 21.333z" />
<glyph unicode="&#xe90c;" glyph-name="log-out" d="M554.667-0h-512v896h512v-213.333h42.667v234.667l-21.333 21.333h-554.667l-21.333-21.333v-938.667l21.333-21.333h554.667l21.333 21.333v192h-42.667v-170.667zM795.733 691.627l-30.293-30.293 192-192h-744.107v-42.667h744.107l-192-192 30.293-30.293 228.267 228.693v29.867l-228.267 228.693z" />
<glyph unicode="&#xe90d;" glyph-name="mail" d="M1002.667 768h-981.333l-21.333-21.333v-597.333l21.333-21.333h981.333l21.333 21.333v597.333zM698.453 392.534l-24.32-34.987 269.653-186.88h-863.573l269.653 186.453-24.32 34.987-282.88-195.413v512l457.813-282.027h23.040l457.813 283.307v-512zM89.173 725.334h849.493l-426.667-256z" />
<glyph unicode="&#xe90e;" glyph-name="menu" d="M0 768h1024v-42.667h-1024v42.667zM0 469.334h1024v-42.667h-1024v42.667zM0 170.667h1024v-42.667h-1024v42.667z" />
<glyph unicode="&#xe90f;" glyph-name="positioning" d="M981.333 469.334h-170.667v277.333l-21.333 21.333h-277.333v170.667h-42.667v-170.667h-277.333l-21.333-21.333v-277.333h-170.667v-42.667h170.667v-277.333l21.333-21.333h277.333v-170.667h42.667v170.667h277.333l21.333 21.333v277.333h170.667zM768 725.334v-256h-256v256zM213.333 725.334h256v-256h-256zM213.333 170.667v256h256v-256zM768 170.667h-256v256h256z" />
<glyph unicode="&#xe910;" glyph-name="print-media" d="M917.333 938.667h-682.667l-21.333-21.333v-106.667h-106.667l-21.333-21.333v-853.333l21.333-21.333h682.667l21.333 21.333v106.667h106.667l21.333 21.333v853.333zM768-42.666h-640v810.667h85.333v-704l21.333-21.333h533.333zM896 85.334h-640v810.667h640zM298.667 725.334h554.667v-42.667h-554.667v42.667zM469.333 469.334h384v-42.667h-384v42.667zM469.333 341.334h384v-42.667h-384v42.667zM469.333 213.334h384v-42.667h-384v42.667zM298.667 469.334h128v-42.667h-128v42.667z" />
<glyph unicode="&#xe911;" glyph-name="print" d="M1017.6 548.267l-85.333 85.333-14.933 6.4h-810.667l-14.933-6.4-85.333-85.333-6.4-14.933v-341.333l21.333-21.333h192v-192l21.333-21.333h554.667l21.333 21.333v192h192l21.333 21.333v341.333zM768-0h-512v341.333h512v-341.333zM981.333 213.334h-170.667v149.333l-21.333 21.333h-554.667l-21.333-21.333v-149.333h-170.667v311.040l72.96 72.96h792.747l72.96-72.96zM256 853.334h384v-106.667l21.333-21.333h106.667v-42.667h42.667v64l-6.4 14.933-128 128-14.933 6.4h-426.667l-21.333-21.333v-192h42.667zM682.667 823.040l55.040-55.040h-55.040zM298.667 256h426.667v-42.667h-426.667v42.667zM298.667 128h426.667v-42.667h-426.667v42.667z" />
<glyph unicode="&#xe912;" glyph-name="product" d="M808.533 30.72l-19.2 11.947h-69.12l-80.213 303.36c-1.581 43.304-24.441 80.947-58.381 102.95l-202.312 161.156c1.657 3.839 3.262 8.527 4.531 13.352l0.163-2.258 263.68 154.027c10.103-4.733 21.938-7.495 34.419-7.495 15.994 0 30.929 4.536 43.587 12.393l69.62-70.177 30.293 30.293-69.547 70.4c7.359 12.201 11.778 26.9 11.946 42.619-0.292 46.954-38.384 84.866-85.331 84.866-33.257 0-62.071-19.025-76.151-46.786l-341.557-145.98c-56.554-3.031-101.264-49.628-101.264-106.667 0-58.99 47.821-106.811 106.811-106.811 1.951 0 3.89 0.052 5.815 0.156l111.518-156.598c-2.336-8.934-3.73-19.212-3.839-29.798l-0.001-0.068-60.16-302.933h-89.173l-19.2-11.947-42.667-85.333 19.2-30.72h640l19.2 30.72zM682.667 896c23.564 0 42.667-19.103 42.667-42.667s-19.103-42.667-42.667-42.667c-23.564 0-42.667 19.103-42.667 42.667s19.103 42.667 42.667 42.667zM597.333 341.334c0-47.128-38.205-85.333-85.333-85.333s-85.333 38.205-85.333 85.333c0 47.128 38.205 85.333 85.333 85.333s85.333-38.205 85.333-85.333zM597.333 840.96c1.986-13.725 6.968-26 14.266-36.551l-231.866-135.823c-6.739 25.415-21.93 46.569-42.319 60.784zM213.333 640c0 35.346 28.654 64 64 64s64-28.654 64-64c0-35.346-28.654-64-64-64s-64 28.654-64 64zM320 542.294c15.282 7.026 28.115 16.989 38.256 29.26l131.131-104.78c-32.8-6.006-60.644-23.804-79.555-48.748zM411.307 262.827c23.646-30.017 59.993-49.113 100.801-49.113 42.683 0 80.486 20.891 103.742 53.007l60.417-224.054h-308.907zM226.56-42.666l21.333 42.667h528.213l21.333-42.667z" />
<glyph unicode="&#xe913;" glyph-name="search" d="M704 938.667c-0.127 0-0.278 0-0.428 0-176.495 0-319.573-143.078-319.573-319.573 0-80.924 30.079-154.822 79.666-211.126l-47.664-47.008-17.067 17.067-14.933 5.973h-42.667l-14.933-6.4-320-320-6.4-14.933v-42.667l6.4-14.933 64-64 14.933-6.4h42.667l14.933 6.4 320 320 6.4 14.933v42.667l-6.4 14.933-17.067 17.067 47.36 47.36c56.008-49.284 129.958-79.36 210.932-79.36 176.731 0 320 143.269 320 320s-143.269 320-320 320c-0.056 0-0.112 0-0.167 0zM426.667 264.96l-307.627-307.627h-24.747l-51.627 51.627v25.173l307.627 307.2h25.173l51.2-51.627zM704 341.334c-153.167 0-277.333 124.166-277.333 277.333s124.166 277.333 277.333 277.333c153.167 0 277.333-124.166 277.333-277.333-0.242-153.069-124.264-277.091-277.31-277.333z" />
<glyph unicode="&#xe914;" glyph-name="social-facebook" d="M512 938.667c-282.77 0-512-229.23-512-512s229.23-512 512-512c282.77 0 512 229.23 512 512s-229.23 512-512 512zM665.173 426.667h-131.84v-298.667h-128v298.667h-85.333v85.333h85.333v70.827c0 46.933 14.933 120.32 113.067 120.32h100.267v-105.813h-17.493c-10.24 0-67.84 0-67.84-20.48v-64.853h142.507z" />
<glyph unicode="&#xe915;" glyph-name="social-googleplus" d="M512 938.667c-282.77 0-512-229.23-512-512s229.23-512 512-512c282.77 0 512 229.23 512 512s-229.23 512-512 512zM387.413 252.587c-96.26 0-174.293 78.034-174.293 174.293s78.034 174.293 174.293 174.293c0.398 0.003 0.869 0.005 1.341 0.005 44.887 0 85.634-17.728 115.621-46.564l-35.041-42.615c-21.629 16.263-48.936 26.044-78.528 26.044-0.743 0-1.484-0.006-2.223-0.018 0.105 0.001 0.098 0.001 0.091 0.001-60.324 0-109.227-48.902-109.227-109.227 0-0.75 0.008-1.499 0.023-2.245 0.191-57.003 46.536-103.229 103.678-103.229 1.501 0 2.994 0.032 4.479 0.095 97.068-0.007 90.241 103.246 94.081 103.246h-97.707v42.667h168.107c0-42.667 2.56-26.453 2.56-37.973 0.216-3.19 0.339-6.914 0.339-10.667 0-92.662-74.971-167.813-167.564-168.106zM810.667 426.667h-85.333v-85.333h-42.667v85.333h-85.333v42.667h85.333v85.333h42.667v-85.333h85.333z" />
<glyph unicode="&#xe916;" glyph-name="social-linkedin" d="M799.147 185.6v198.4c0 107.093-57.173 157.013-133.547 157.013-1.406 0.061-3.055 0.096-4.712 0.096-42.455 0-79.545-22.965-99.527-57.151l-0.295 50.228h-115.627c0-32.853 0-348.587 0-348.587h116.053v194.56c-0.052 1.071-0.082 2.327-0.082 3.589 0 8.785 1.435 17.235 4.084 25.127 8.665 24.268 31.818 41.785 59.105 42.11 42.706 0 58.919-32 58.919-78.933v-186.453h116.053zM323.413 581.547c2.155-0.272 4.648-0.427 7.178-0.427 33.461 0 60.587 27.126 60.587 60.587s-27.126 60.587-60.587 60.587c-2.53 0-5.023-0.155-7.471-0.456-1.861 0.301-4.355 0.456-6.884 0.456-33.461 0-60.587-27.126-60.587-60.587s27.126-60.587 60.587-60.587c2.53 0 5.023 0.155 7.471 0.456zM512-85.333c-282.77 0-512 229.23-512 512s229.23 512 512 512c282.77 0 512-229.23 512-512s-229.23-512-512-512zM381.44 185.6v348.587h-115.627v-348.587z" />
<glyph unicode="&#xe917;" glyph-name="social-twitter" d="M512 938.667c-282.77 0-512-229.23-512-512s229.23-512 512-512c282.77 0 512 229.23 512 512s-229.23 512-512 512zM736.427 538.454c0-4.693 0-9.813 0-14.507-0.522-175.864-143.208-318.228-319.145-318.228-63.846 0-123.312 18.748-173.196 51.038 9.375-1.794 18.779-2.386 28.32-2.386 52.797 0 101.359 18.128 139.803 48.498-49.426 0.649-90.623 32.734-105.208 76.922 6.557-1.055 14.347-2.119 22.386-2.119s15.829 1.064 23.237 3.058c-54.029 9.946-94.249 55.128-96.616 110.121l-0.008 0.243c42.667-8.533 37.973-13.227 56.32-14.080-28.593 20.070-47.053 52.893-47.053 90.028 0 1.8 0.043 3.591 0.129 5.37 0.542 20.652 6.661 40.018 16.91 56.554 55.243-67.756 136.86-111.772 228.858-116.928-1.018 7.614-2.082 16.399-2.082 25.433 0 62.209 50.431 112.64 112.64 112.64 32.434 0 61.667-13.709 82.22-35.648 25.658 5.058 85.391 11.458 85.391 11.458-14.933-23.467-30.72-71.253-52.907-87.467z" />
<glyph unicode="&#xe918;" glyph-name="social-youtube" d="M426.667 298.667l213.333 128-213.333 128v-256zM512 938.667c-282.77 0-512-229.23-512-512s229.23-512 512-512c282.77 0 512 229.23 512 512s-229.23 512-512 512zM826.453 311.894c-3.015-49.108-35.704-89.853-80.235-104.719-70.646-5.257-152.098-8.115-234.218-8.115s-163.572 2.859-244.262 8.482c-36.058 5.366-66.778 61.686-70.192 104.352-3.497 34.472-5.491 74.497-5.491 114.987s1.994 80.514 5.89 119.98c3.015 37.673 34.588 93.567 80.668 98.687 69.838 5.314 151.259 8.344 233.387 8.344 82.126 0 163.545-3.029 244.15-8.982 41.29 0.638 66.89-54.829 70.303-97.495 3.497-35.297 5.491-76.296 5.491-117.76s-1.994-82.461-5.892-122.902z" />
<glyph unicode="&#xe919;" glyph-name="view-bar" d="M960 768h-128l-21.333-21.333v-768l21.333-21.333h128l21.333 21.333v768zM938.667-0h-85.333v725.333h85.333zM320 896l-21.333-21.333v-896l21.333-21.333h128l21.333 21.333v896l-21.333 21.333zM426.667-0h-85.333v853.333h85.333zM64 554.667l-21.333-21.333v-554.667l21.333-21.333h128l21.333 21.333v554.667l-21.333 21.333zM170.667-0h-85.333v512h85.333zM576 426.667l-21.333-21.333v-426.667l21.333-21.333h128l21.333 21.333v426.667l-21.333 21.333zM682.667-0h-85.333v384h85.333z" />
<glyph unicode="&#xe91a;" glyph-name="view-chart" d="M899.413 861.867l-331.093-264.533h-141.653l-14.933-6.4-356.693-356.267 30.293-30.293 350.293 350.293h140.373l13.227 4.693 336.64 269.227-26.453 33.28zM213.333 213.334h42.667v-256h-42.667v256zM85.333 128h42.667v-170.667h-42.667v170.667zM341.333 341.334h42.667v-384h-42.667v384zM469.333 469.334h42.667v-512h-42.667v512zM597.333 469.334h42.667v-512h-42.667v512zM853.333 640h42.667v-682.667h-42.667v682.667zM725.333 554.667h42.667v-597.333h-42.667v597.333z" />
<glyph unicode="&#xe91b;" glyph-name="view-table" d="M960 896h-640l-21.333-21.333v-128l21.333-21.333h640l21.333 21.333v128zM938.667 768h-597.333v85.333h597.333zM320 640l-21.333-21.333v-128l21.333-21.333h640l21.333 21.333v128l-21.333 21.333zM938.667 512h-597.333v85.333h597.333zM320 384l-21.333-21.333v-128l21.333-21.333h640l21.333 21.333v128l-21.333 21.333zM938.667 256h-597.333v85.333h597.333zM64 896l-21.333-21.333v-128l21.333-21.333h128l21.333 21.333v128l-21.333 21.333zM170.667 768h-85.333v85.333h85.333zM64 640l-21.333-21.333v-128l21.333-21.333h128l21.333 21.333v128l-21.333 21.333zM170.667 512h-85.333v85.333h85.333zM64 384l-21.333-21.333v-128l21.333-21.333h128l21.333 21.333v128l-21.333 21.333zM170.667 256h-85.333v85.333h85.333zM320 128l-21.333-21.333v-128l21.333-21.333h640l21.333 21.333v128l-21.333 21.333zM938.667-0h-597.333v85.333h597.333zM64 128l-21.333-21.333v-128l21.333-21.333h128l21.333 21.333v128l-21.333 21.333zM170.667-0h-85.333v85.333h85.333z" />
<glyph unicode="&#xe91c;" glyph-name="zoom-in" d="M704 938.667c-0.127 0-0.278 0-0.428 0-176.495 0-319.573-143.078-319.573-319.573 0-80.924 30.079-154.822 79.666-211.126l-47.664-47.008-17.067 17.067-14.933 5.973h-42.667l-14.933-6.4-320-320-6.4-14.933v-42.667l6.4-14.933 64-64 14.933-6.4h42.667l14.933 6.4 320 320 6.4 14.933v42.667l-6.4 14.933-17.067 17.067 47.36 47.36c56.008-49.284 129.958-79.36 210.932-79.36 176.731 0 320 143.269 320 320s-143.269 320-320 320c-0.056 0-0.112 0-0.167 0zM426.667 264.96l-307.627-307.627h-24.747l-51.627 51.627v25.173l307.627 307.2h25.173l51.2-51.627zM704 341.334c-153.167 0-277.333 124.166-277.333 277.333s124.166 277.333 277.333 277.333c153.167 0 277.333-124.166 277.333-277.333-0.242-153.069-124.264-277.091-277.31-277.333zM725.333 768h-42.667v-128h-128v-42.667h128v-128h42.667v128h128v42.667h-128v128z" />
<glyph unicode="&#xe91d;" glyph-name="zoom-out" d="M704 938.667c-0.127 0-0.278 0-0.428 0-176.495 0-319.573-143.078-319.573-319.573 0-80.924 30.079-154.822 79.666-211.126l-47.664-47.008-17.067 17.067-14.933 5.973h-42.667l-14.933-6.4-320-320-6.4-14.933v-42.667l6.4-14.933 64-64 14.933-6.4h42.667l14.933 6.4 320 320 6.4 14.933v42.667l-6.4 14.933-17.067 17.067 47.36 47.36c56.008-49.284 129.958-79.36 210.932-79.36 176.731 0 320 143.269 320 320s-143.269 320-320 320c-0.056 0-0.112 0-0.167 0zM426.667 264.96l-307.627-307.627h-24.747l-51.627 51.627v25.173l307.627 307.2h25.173l51.2-51.627zM704 341.334c-153.167 0-277.333 124.166-277.333 277.333s124.166 277.333 277.333 277.333c153.167 0 277.333-124.166 277.333-277.333-0.242-153.069-124.264-277.091-277.31-277.333zM554.667 640h298.667v-42.667h-298.667v42.667z" />
<glyph unicode="&#xe91e;" glyph-name="arrow-down" d="M944.213 483.414l-432.213-494.080v949.333h-42.667v-949.333l-431.787 494.080-32-32 469.333-536.747h32l469.333 536.747-32 32z" />
<glyph unicode="&#xe91f;" glyph-name="arrow-left" d="M1024 469.334h-949.333l494.080 431.787-31.573 32-537.173-469.333v-32l537.173-469.333 29.867 32-492.373 432.213h949.333v42.667z" />
<glyph unicode="&#xe920;" glyph-name="arrow-right" d="M486.827 933.12l-29.867-32 490.24-431.787h-947.2v-42.667h949.333l-494.080-432.213 31.573-32 537.173 469.333v32l-537.173 469.333z" />
<glyph unicode="&#xe921;" glyph-name="arrow-up" d="M976.213 401.494l-469.333 537.173h-32l-469.333-537.173 32-29.867 431.787 494.507v-951.467h42.667v949.333l432.213-492.373 32 29.867z" />
</font>
</defs>
</svg>
